<svg xmlns="http://www.w3.org/2000/svg" viewBox="0 0 329.41 145.41"><defs><style>.cls-1{fill:#2160ab;stroke-width:2.79px;}.cls-1,.cls-2,.cls-3,.cls-4{stroke:#1d1d1b;}.cls-1,.cls-2,.cls-3,.cls-4,.cls-5{stroke-miterlimit:10;}.cls-2{fill:#b4d6ff;stroke-width:2.52px;}.cls-3,.cls-5{fill:#fff;}.cls-3,.cls-4{stroke-width:1.33px;}.cls-4{fill:#1d71b8;}.cls-5,.cls-6{isolation:isolate;}.cls-5{font-size:55.63px;stroke:#000;stroke-width:2px;font-family:ComicSansMS, Comic Sans MS;}.cls-7{fill:none;}</style></defs><g id="Camada_2" data-name="Camada 2"><g id="Camada_1-2" data-name="Camada 1"><g id="Camada_2-2" data-name="Camada 2"><g id="Camada_1-2-2" data-name="Camada 1-2"><path class="cls-1" d="M41.42,52.34H288c22.09,0,40,19.87,40,44.35v1.38c0,24.48-17.93,44.36-40,44.36H41.42c-22.09,0-40-19.88-40-44.36V96.69C1.39,72.21,19.33,52.34,41.42,52.34Z"/><path class="cls-2" d="M45.59,52.34H56.67c24.38,0,44.19,18.64,44.19,41.59v6.67c0,23-19.81,41.6-44.19,41.6H45.59c-24.38,0-44.2-18.65-44.2-41.6V93.93C1.39,71,21.21,52.34,45.59,52.34Z"/><path class="cls-3" d="M32.87,119.1a25.19,25.19,0,0,1,9.78-10.67A21.64,21.64,0,0,1,60.1,106.9L43.3,72.13a17.07,17.07,0,0,0-9.94-1.45c-8.24,1.45-12.56,8.9-13.29,10.13Z"/><path class="cls-3" d="M86.35,92.62a25,25,0,0,0-13.53,2.15A28.34,28.34,0,0,0,60.18,106.9L43.3,72.21a18.36,18.36,0,0,1,7.5-6.52,17,17,0,0,1,14,.15Z"/><path class="cls-4" d="M19.5,90l.65-9.2L32.87,119.1l-1.39,10.2Z"/><path class="cls-4" d="M87.82,101.75A28.52,28.52,0,0,0,75,104.52a27.65,27.65,0,0,0-12.64,12.35L60.1,106.82A28.75,28.75,0,0,1,72.74,94.69a24.75,24.75,0,0,1,13.53-2.14Z"/><path class="cls-4" d="M32.46,129.23a30.66,30.66,0,0,1,16.06-11.51,31.85,31.85,0,0,1,14-.85l-2.28-10a21.14,21.14,0,0,0-16.06.84c-7,3.3-10.27,9.52-11.25,11.43Z"/><text class="cls-5" transform="translate(105.65 116.87) scale(0.94 1)">Bibliot.V</text><text class="cls-6"/></g><rect class="cls-7" x="208.13" width="43.23" height="0.77"/></g></g></g></svg>